<svg xmlns="http://www.w3.org/2000/svg" width="148.625" height="181.327" viewBox="0 0 148.625 181.327"><defs><style>.a{fill:#aacfe2;}.b,.e{fill:#01839d;}.c{fill:#016392;opacity:0.6;}.d{fill:#012d4a;}.e{font-size:11px;font-family:Roboto-Light, Roboto;font-weight:300;}</style></defs><g transform="translate(-365.474 -76.201)"><g transform="translate(383.456 76.201)"><rect class="a" width="13.565" height="13.565" transform="matrix(0.945, -0.329, 0.329, 0.945, 19.492, 23.154)"/><rect class="a" width="13.565" height="13.565" transform="matrix(0.945, -0.329, 0.329, 0.945, 39.043, 16.345)"/><rect class="a" width="13.565" height="13.565" transform="matrix(0.945, -0.329, 0.329, 0.945, 58.608, 9.618)"/><path class="a" d="M578.449,87.076l-2.126-6.109a7.093,7.093,0,0,0-9.034-4.37l-6.109,2.126,4.458,12.811Z" transform="translate(-483.066 -76.201)"/><path class="a" d="M421.318,147.326l-6.815-19.6-6.344,2.2a9.567,9.567,0,0,0-5.894,12.174l2.513,8.132,9.445,53.561a13.986,13.986,0,0,0,16.2,11.341l72.927-12.86a13.986,13.986,0,0,0,11.341-16.2l-9.445-53.561Z" transform="translate(-401.733 -102.486)"/><path class="a" d="M487.5,211.8c2.939-.519,4.693-4.541,3.914-8.97s-3.807-7.608-6.746-7.089-4.693,4.541-3.914,8.965S484.564,212.316,487.5,211.8Z" transform="translate(-441.949 -137.15)"/><path class="a" d="M486.849,211.752c-3.366.593-6.819-2.959-7.691-7.922s1.151-9.48,4.517-10.077,6.815,2.959,7.691,7.922S490.214,211.159,486.849,211.752Zm-3.037-17.225c-2.939.519-4.679,4.63-3.88,9.166s3.841,7.8,6.78,7.285,4.679-4.63,3.88-9.166S486.751,194.007,483.811,194.527Z" transform="translate(-441.123 -136.131)"/><path class="a" d="M543.033,202.011c2.939-.519,4.693-4.541,3.914-8.97s-3.807-7.608-6.746-7.089-4.693,4.541-3.914,8.965S540.1,202.526,543.033,202.011Z" transform="translate(-470.274 -132.156)"/><path class="a" d="M542.379,201.962c-3.366.593-6.815-2.959-7.692-7.922s1.151-9.48,4.517-10.077,6.819,2.959,7.691,7.922S545.749,201.369,542.379,201.962Zm-3.037-17.225c-2.939.519-4.679,4.63-3.88,9.161s3.841,7.8,6.78,7.285,4.679-4.63,3.88-9.166S542.281,184.217,539.341,184.737Z" transform="translate(-469.448 -131.137)"/><path class="a" d="M497,240.531c-13.32,2.347-25.769-.3-30.281-6.442a1.572,1.572,0,0,1,1.685-2.45c7.726,2.141,17.362,2.371,27.136.647s18.754-5.237,25.279-9.891a1.583,1.583,0,0,1,1.827,0h0a1.576,1.576,0,0,1,.6,1.724C521.121,231.434,510.324,238.185,497,240.531Zm-29.149-8.147a.786.786,0,0,0-.495,1.239c4.341,5.908,16.471,8.431,29.507,6.134s23.579-8.818,25.632-15.858a.794.794,0,0,0-.3-.862.78.78,0,0,0-.911,0c-6.619,4.723-15.711,8.279-25.6,10.023s-19.65,1.509-27.484-.661A.838.838,0,0,0,467.854,232.384Z" transform="translate(-434.728 -150.625)"/><path class="a" d="M522.831,223.132a1.185,1.185,0,0,0-1.372,0c-6.57,4.688-15.6,8.221-25.441,9.955s-19.532,1.5-27.307-.656a1.181,1.181,0,0,0-1.269,1.837c4.424,6.026,16.716,8.613,29.894,6.285s23.849-8.96,25.94-16.133A1.166,1.166,0,0,0,522.831,223.132Z" transform="translate(-435.134 -151.038)"/><rect class="b" width="13.565" height="13.565" transform="matrix(0.945, -0.329, 0.329, 0.945, 19.492, 23.154)"/><rect class="b" width="13.565" height="13.565" transform="matrix(0.945, -0.329, 0.329, 0.945, 39.043, 16.345)"/><rect class="b" width="13.565" height="13.565" transform="matrix(0.945, -0.329, 0.329, 0.945, 58.608, 9.618)"/><path class="b" d="M578.449,87.076l-2.126-6.109a7.093,7.093,0,0,0-9.034-4.37l-6.109,2.126,4.458,12.811Z" transform="translate(-483.066 -76.201)"/><path class="b" d="M421.318,147.326l-6.815-19.6-6.344,2.2a9.567,9.567,0,0,0-5.894,12.174l2.513,8.132,9.445,53.561a13.986,13.986,0,0,0,16.2,11.341l72.927-12.86a13.986,13.986,0,0,0,11.341-16.2l-9.445-53.561Z" transform="translate(-401.733 -102.486)"/><path class="a" d="M487.5,211.8c2.939-.519,4.693-4.541,3.914-8.97s-3.807-7.608-6.746-7.089-4.693,4.541-3.914,8.965S484.564,212.316,487.5,211.8Z" transform="translate(-441.949 -137.15)"/><path class="c" d="M486.849,211.752c-3.366.593-6.819-2.959-7.691-7.922s1.151-9.48,4.517-10.077,6.815,2.959,7.691,7.922S490.214,211.159,486.849,211.752Zm-3.037-17.225c-2.939.519-4.679,4.63-3.88,9.166s3.841,7.8,6.78,7.285,4.679-4.63,3.88-9.166S486.751,194.007,483.811,194.527Z" transform="translate(-441.123 -136.131)"/><path class="a" d="M543.033,202.011c2.939-.519,4.693-4.541,3.914-8.97s-3.807-7.608-6.746-7.089-4.693,4.541-3.914,8.965S540.1,202.526,543.033,202.011Z" transform="translate(-470.274 -132.156)"/><path class="c" d="M542.379,201.962c-3.366.593-6.815-2.959-7.692-7.922s1.151-9.48,4.517-10.077,6.819,2.959,7.691,7.922S545.749,201.369,542.379,201.962Zm-3.037-17.225c-2.939.519-4.679,4.63-3.88,9.161s3.841,7.8,6.78,7.285,4.679-4.63,3.88-9.166S542.281,184.217,539.341,184.737Z" transform="translate(-469.448 -131.137)"/><path class="c" d="M497,240.531c-13.32,2.347-25.769-.3-30.281-6.442a1.572,1.572,0,0,1,1.685-2.45c7.726,2.141,17.362,2.371,27.136.647s18.754-5.237,25.279-9.891a1.583,1.583,0,0,1,1.827,0h0a1.576,1.576,0,0,1,.6,1.724C521.121,231.434,510.324,238.185,497,240.531Zm-29.149-8.147a.786.786,0,0,0-.495,1.239c4.341,5.908,16.471,8.431,29.507,6.134s23.579-8.818,25.632-15.858a.794.794,0,0,0-.3-.862.78.78,0,0,0-.911,0c-6.619,4.723-15.711,8.279-25.6,10.023s-19.65,1.509-27.484-.661A.838.838,0,0,0,467.854,232.384Z" transform="translate(-434.728 -150.625)"/><path class="a" d="M522.831,223.132a1.185,1.185,0,0,0-1.372,0c-6.57,4.688-15.6,8.221-25.441,9.955s-19.532,1.5-27.307-.656a1.181,1.181,0,0,0-1.269,1.837c4.424,6.026,16.716,8.613,29.894,6.285s23.849-8.96,25.94-16.133A1.166,1.166,0,0,0,522.831,223.132Z" transform="translate(-435.134 -151.038)"/></g><g transform="translate(365.474 196.271)"><path class="d" d="M376.983,324.469a82.02,82.02,0,0,1,9.906-2.146,69.911,69.911,0,0,1,10.67-.794q1.646,0,3.292.059t3.292.235q.529.059-.059.882a12.344,12.344,0,0,1-1.587,1.764,20.617,20.617,0,0,1-2.058,1.7,2.728,2.728,0,0,1-1.587.705q-1.235-.176-2.381-.265t-2.263-.206v.118q-1.411,4.527-3.351,10.023T387.035,347.4q-1.352,3.645-2.528,7t-2.116,6.232q1.529-.118,3.292-.147t3.7-.088q.412.059-.088.794a12.8,12.8,0,0,1-1.382,1.646,18.562,18.562,0,0,1-1.852,1.675,3.493,3.493,0,0,1-1.5.823q-2.881.176-5.026.294t-4,.235l-3.674.235q-1.822.118-4.115.294l.176-.059a2.421,2.421,0,0,1-1.734.059,1.037,1.037,0,0,1-.647-.941,2.806,2.806,0,0,1,.47-1.5,4.759,4.759,0,0,1,1.617-1.558q2.116-.47,3.939-.735t4.056-.5q1.176-3.41,2.587-7.819t2.822-9.112q1.411-4.7,2.763-9.259t2.41-8.26a69.009,69.009,0,0,0-8.936,1.764l.059-.059a2.484,2.484,0,0,1-1.7.088,1.087,1.087,0,0,1-.735-.882,2.492,2.492,0,0,1,.323-1.44,4.575,4.575,0,0,1,1.47-1.587Z" transform="translate(-365.547 -321.412)"/><path class="d" d="M427.664,378.62q0-1.176.088-2.41a23.486,23.486,0,0,1,.323-2.528q-1.47,2.293-2.851,4.615t-2.734,4.674a2.139,2.139,0,0,1-.029.353,1.8,1.8,0,0,0-.029.235,4.157,4.157,0,0,1-1.646.176,8.654,8.654,0,0,1-1.911-.323,4.625,4.625,0,0,1-1.528-.735,1.1,1.1,0,0,1-.5-1.117l.882-4.7a.661.661,0,0,0-.353-.764,4.129,4.129,0,0,0-.911-.265,4.128,4.128,0,0,1-.911-.265q-.412-.176-.294-.764a1.148,1.148,0,0,1-.088-.941,8.043,8.043,0,0,1,.323-1.029q.176-.441.265-.617t-.265.353a1.829,1.829,0,0,1,.323-.529,1.828,1.828,0,0,0,.323-.529q.412-.705.97-1.675t1.146-1.969q.588-1,1.146-1.94t.911-1.646a2.826,2.826,0,0,1,1.323-.705,13.291,13.291,0,0,1,2.028-.441,11.415,11.415,0,0,1,1.94-.118q.882.029,1.058.265a40.18,40.18,0,0,0-1.117,4.292q-.47,2.293-.941,4.762,1.529-2.822,3.086-5.7t2.91-5.35l1.117-.588-.059.059a4.975,4.975,0,0,1,.97-.412q.558-.176,1.117-.323t1.058-.235a4.832,4.832,0,0,1,.794-.088,2.52,2.52,0,0,1,1.411.294q.412.294.118,1.117-.118.706-.323,1.47t-.323,1.47q-.353,1.528-.823,3.439t-.852,3.851q-.382,1.94-.647,3.762a22.2,22.2,0,0,0-.265,3.116,4.551,4.551,0,0,0,.176,1.764,3.366,3.366,0,0,0,1.5-.882,20.8,20.8,0,0,0,2-1.969q1.029-1.146,1.969-2.41t1.47-2.146l-.059.059a.84.84,0,0,1,.823-.441,3.118,3.118,0,0,1,1.264.206,2.694,2.694,0,0,1,1.029.676.751.751,0,0,1,.176.911,27.81,27.81,0,0,1-2.058,3.233,32.305,32.305,0,0,1-3,3.586,21.912,21.912,0,0,1-3.469,2.939,6.386,6.386,0,0,1-3.586,1.235,3.874,3.874,0,0,1-2.087-.412,3.723,3.723,0,0,1-1.382-1.323,6.073,6.073,0,0,1-.764-2.028A13.179,13.179,0,0,1,427.664,378.62Z" transform="translate(-390.831 -340.878)"/><path class="d" d="M478.52,373.821a1.139,1.139,0,0,1-1.029.441,3.093,3.093,0,0,1-1.264-.323,2.127,2.127,0,0,1-.882-.764.683.683,0,0,1,.059-.882,14.159,14.159,0,0,0,1.352-2.146q.588-1.146,1.058-2.322a5.287,5.287,0,0,1,.265-.588q.206-.411.382-.852a7.251,7.251,0,0,0,.265-.764q.088-.323-.029-.323a2.9,2.9,0,0,0-1.793.965,13.532,13.532,0,0,0-1.734,2.165A23.684,23.684,0,0,0,473.7,371c-.431.877-.764,1.612-1,2.195a11.1,11.1,0,0,0-.382,1.494,8.492,8.492,0,0,0-.147,1.553,5.3,5.3,0,0,0,.588,2.518,2.079,2.079,0,0,0,2,1.112,4.169,4.169,0,0,0,2.116-.617,12.417,12.417,0,0,0,2.116-1.587,18.408,18.408,0,0,0,2.028-2.2q.97-1.235,1.793-2.528a.926.926,0,0,1,.882-.412,3.523,3.523,0,0,1,1.264.235,2.346,2.346,0,0,1,.97.647.665.665,0,0,1,.118.823,38.98,38.98,0,0,1-2.44,3.469,24.963,24.963,0,0,1-2.969,3.189,16.128,16.128,0,0,1-3.38,2.352,7.921,7.921,0,0,1-3.674.926q-3.7.059-5.438-1.793a7.059,7.059,0,0,1-1.734-5.026,14.764,14.764,0,0,1,.294-2.763,16.393,16.393,0,0,1,.882-3,22.845,22.845,0,0,1,1.793-3.616,19.454,19.454,0,0,1,2.675-3.5,15.034,15.034,0,0,1,3.38-2.645,7.762,7.762,0,0,1,3.909-1.058,2.928,2.928,0,0,1,2.616,1.088,4.562,4.562,0,0,1,.735,2.616,8.414,8.414,0,0,1-.294,2.2,14.823,14.823,0,0,1-.588,1.793q-.647,1.352-1.47,2.734A21.846,21.846,0,0,1,478.52,373.821Z" transform="translate(-416.997 -341.429)"/><path class="d" d="M511.842,360.767a3.329,3.329,0,0,1,2.44,1.146,6.073,6.073,0,0,1,1.205,2.44,4.888,4.888,0,0,1,2.381.441q1.029.5.735,1.382-.118.294-.294.794t-.294.794q-.764,1.881-1.44,3.557a28.16,28.16,0,0,0-1.088,3.2q-.529,1.764-.852,3.2a4.5,4.5,0,0,0-.206,1.734,4.063,4.063,0,0,0,1.176-.764,26.9,26.9,0,0,0,2.116-1.94,11.652,11.652,0,0,0,1.617-1.881,20.181,20.181,0,0,0,1.264-2.058,2.541,2.541,0,0,1,1.411-.97,2.377,2.377,0,0,1,1.44.029,1.329,1.329,0,0,1,.823.911,2,2,0,0,1-.382,1.617,17.8,17.8,0,0,0-1.176,1.587q-.47.647-.97,1.382a12.433,12.433,0,0,1-.97,1.264,32.059,32.059,0,0,1-4.056,3.762,6.553,6.553,0,0,1-3.527,1.587,4.333,4.333,0,0,1-3.028-.823,4.657,4.657,0,0,1-1.44-2.293,10.141,10.141,0,0,1-2.528,2.2,6.343,6.343,0,0,1-3.175.97q-2.939.118-4.056-1.646a8.092,8.092,0,0,1-1.117-4.409,18.162,18.162,0,0,1,.47-4.056,19.725,19.725,0,0,1,2.146-5.056,21.042,21.042,0,0,1,3.292-4.233,15.621,15.621,0,0,1,3.968-2.881A8.65,8.65,0,0,1,511.842,360.767Zm-7.7,18.695a4.042,4.042,0,0,0,2.939-1.969,22.149,22.149,0,0,0,2.528-4.556V373q.353-1.058.794-2.234t.794-2.293a5.585,5.585,0,0,0,.47-2.175,1.25,1.25,0,0,0-.147-.617.76.76,0,0,0-.617-.323,2.715,2.715,0,0,0-1.793.676A9.584,9.584,0,0,0,507.227,368a17.086,17.086,0,0,0-1.675,2.851,14.735,14.735,0,0,0-1.117,3.322q-.059.176-.176.647l-.265,1.058q-.147.588-.265,1.235a6.372,6.372,0,0,0-.118,1.117,2.824,2.824,0,0,0,.118.882Q503.846,379.462,504.14,379.462Z" transform="translate(-433.034 -341.426)"/><path class="d" d="M556.3,340.631q.647.059,1.058.118a1.654,1.654,0,0,1,.882.529q1.7-4.409,3.586-9.083t4.115-9.612a2.889,2.889,0,0,1,1.617-.97,8.113,8.113,0,0,1,2.2-.323,4.286,4.286,0,0,1,2.087.441q.794.441.382,1.44-2.645,6.055-4.938,11.7t-4.527,11.523v.412l-.941,2.352q-.588,1.411-1.088,2.734t-.852,2.5q-.529,1.764-.852,3.2a4.5,4.5,0,0,0-.206,1.734,4.063,4.063,0,0,0,1.176-.764,26.862,26.862,0,0,0,2.116-1.94,11.648,11.648,0,0,0,1.617-1.881A20.181,20.181,0,0,0,565,352.683a2.541,2.541,0,0,1,1.411-.97,2.377,2.377,0,0,1,1.44.029,1.329,1.329,0,0,1,.823.911,2,2,0,0,1-.382,1.617,17.768,17.768,0,0,0-1.176,1.587q-.47.647-.97,1.382a12.424,12.424,0,0,1-.97,1.264,32.051,32.051,0,0,1-4.056,3.762,6.553,6.553,0,0,1-3.527,1.587,4.333,4.333,0,0,1-3.028-.823,4.657,4.657,0,0,1-1.44-2.293,10.141,10.141,0,0,1-2.528,2.2,6.344,6.344,0,0,1-3.175.97q-2.939.118-4.056-1.646a8.092,8.092,0,0,1-1.117-4.409,18.164,18.164,0,0,1,.47-4.056,19.724,19.724,0,0,1,2.146-5.056,21.044,21.044,0,0,1,3.292-4.233,15.623,15.623,0,0,1,3.968-2.881,8.594,8.594,0,0,1,4.115-1h.059Zm-7.76,18.695a4.042,4.042,0,0,0,2.939-1.969,22.147,22.147,0,0,0,2.528-4.556v.059q.529-1.646,1.117-3.351t1.117-2.939a1.9,1.9,0,0,0-.206-.911.88.88,0,0,0-.735-.441,2.714,2.714,0,0,0-1.793.676,9.585,9.585,0,0,0-1.881,1.969,17.085,17.085,0,0,0-1.675,2.851,14.737,14.737,0,0,0-1.117,3.322q-.059.176-.176.647l-.265,1.058q-.147.588-.265,1.234a6.381,6.381,0,0,0-.118,1.117,2.827,2.827,0,0,0,.118.882Q548.246,359.326,548.54,359.326Z" transform="translate(-455.682 -321.29)"/><path class="d" d="M600.428,382.942a9.773,9.773,0,0,1-3.057-.411,5.21,5.21,0,0,1-2-1.146,4.119,4.119,0,0,1-1.088-1.764,7.313,7.313,0,0,1-.323-2.2,11.387,11.387,0,0,1,.294-2.528,18.636,18.636,0,0,1,.794-2.587q.5-1.293,1.088-2.469t1.176-2.175a8.012,8.012,0,0,1-1.94-.764l-.118.176q-.353.588-.823,1.382t-1.176,2.146l-1.94,2.939a2.3,2.3,0,0,1-1.088.764,2.386,2.386,0,0,1-1.264.118,1.263,1.263,0,0,1-.882-.617,1.864,1.864,0,0,1,.118-1.558,2.922,2.922,0,0,1,.323-.588q.206-.294.382-.588.294-.529.97-1.646a25.825,25.825,0,0,0,1.235-2.293,16.453,16.453,0,0,0,.852-2.116q.294-.941-.176-1.117a3.578,3.578,0,0,1-.235-3.175,3.406,3.406,0,0,1,1.822-1.617,4.57,4.57,0,0,1,2.528-.176,2.725,2.725,0,0,1,1.881,1.088,3.4,3.4,0,0,0,.794,1.058,13.068,13.068,0,0,0,1.146.97,8.382,8.382,0,0,0,1.088.705,5.716,5.716,0,0,0,.676.323,6.846,6.846,0,0,1,2.146.852,2.55,2.55,0,0,1,.97,1.058,1.772,1.772,0,0,1,.088,1.146,3.567,3.567,0,0,1-.558,1.176l.059-.059q-.706,1.234-1.382,2.587t-1.205,2.675a22.608,22.608,0,0,0-.852,2.528,8.391,8.391,0,0,0-.323,2.146q0,1.528,1.352,1.47a3.337,3.337,0,0,0,1.734-.559,9.991,9.991,0,0,0,1.822-1.47,18.1,18.1,0,0,0,1.793-2.116q.882-1.205,1.7-2.5v.059a.9.9,0,0,1,.852-.412,3.885,3.885,0,0,1,1.235.206,2.128,2.128,0,0,1,.97.617.665.665,0,0,1,.118.823q-1,1.7-2.234,3.41a21.635,21.635,0,0,1-2.7,3.086,14.655,14.655,0,0,1-3.116,2.263A7.356,7.356,0,0,1,600.428,382.942Zm-9.171-9.23-.059.059.118-.235a.12.12,0,0,1-.029.088A.137.137,0,0,0,591.257,373.712Z" transform="translate(-478.999 -340.438)"/><path class="d" d="M637,379.876a4.169,4.169,0,0,0,2.116-.617,12.417,12.417,0,0,0,2.116-1.587,18.408,18.408,0,0,0,2.028-2.2q.97-1.234,1.793-2.528a.926.926,0,0,1,.882-.412,3.523,3.523,0,0,1,1.264.235,2.346,2.346,0,0,1,.97.647.665.665,0,0,1,.118.823,38.966,38.966,0,0,1-2.44,3.469,24.958,24.958,0,0,1-2.969,3.189,16.124,16.124,0,0,1-3.38,2.352,7.92,7.92,0,0,1-3.674.926q-3.7.059-5.438-1.793a7.059,7.059,0,0,1-1.734-5.026,14.761,14.761,0,0,1,.294-2.763,16.4,16.4,0,0,1,.882-3,22.851,22.851,0,0,1,1.793-3.615,19.455,19.455,0,0,1,2.675-3.5,15.033,15.033,0,0,1,3.38-2.645,7.762,7.762,0,0,1,3.909-1.058,2.938,2.938,0,0,1,2.616,1.083,4.541,4.541,0,0,1,.735,2.606,8.406,8.406,0,0,1-.294,2.2,14.731,14.731,0,0,1-.588,1.788,25.359,25.359,0,0,1-3.527,5.511,25.648,25.648,0,0,1-5.585,4.806A2.122,2.122,0,0,0,637,379.876Zm-2.058-6.7q-.118.412-.265.97a7.935,7.935,0,0,0-.206,1.029,19.234,19.234,0,0,0,3.292-3.263,17.51,17.51,0,0,0,2.293-4.145,5.3,5.3,0,0,1,.265-.588q.206-.411.382-.823a5.721,5.721,0,0,0,.264-.735q.088-.323-.029-.323a2.985,2.985,0,0,0-1.881,1,13.05,13.05,0,0,0-1.764,2.234,22.961,22.961,0,0,0-1.44,2.616q-.617,1.323-.911,2.087Z" transform="translate(-499.755 -341.429)"/></g><text class="e" transform="translate(377.702 254.528)"><tspan x="0" y="0">Discovering Your Talents</tspan></text></g></svg>